<svg width="1600" height="900" viewBox="0 0 1600 900" xmlns="http://www.w3.org/2000/svg" role="img" aria-labelledby="title desc">
  <title>Busfahrt über die Alpen</title>
  <desc>Illustration eines T3-Busses auf einer Passstraße als Desktop-Hero.</desc>
  <defs>
    <linearGradient id="skyB" x1="0" x2="0" y1="0" y2="1">
      <stop offset="0%" stop-color="#0D1B2A" />
      <stop offset="60%" stop-color="#0F2C3F" />
      <stop offset="100%" stop-color="#0C1F33" />
    </linearGradient>
    <linearGradient id="sunset" x1="0" x2="1" y1="0" y2="0">
      <stop offset="0%" stop-color="#FF8A3C" />
      <stop offset="60%" stop-color="#FF671F" />
      <stop offset="100%" stop-color="#EB4D1B" />
    </linearGradient>
  </defs>
  <rect width="1600" height="900" fill="url(#skyB)" />
  <circle cx="1240" cy="200" r="140" fill="url(#sunset)" opacity="0.5" />
  <g opacity="0.45">
    <path d="M-40 660C200 520 520 510 840 580C1110 642 1310 640 1640 540V900H-40V660Z" fill="#0B1524" />
    <path d="M-40 720C260 630 560 670 840 740C1100 806 1420 800 1640 720V900H-40V720Z" fill="#0E1E2F" />
  </g>
  <g stroke="#1C3556" stroke-width="5" fill="#0C1D30" opacity="0.9">
    <path d="M60 520C260 460 520 460 760 520" />
    <path d="M620 480C840 440 1100 440 1360 500" />
  </g>
  <g transform="translate(480 520)">
    <rect x="0" y="40" width="620" height="200" rx="28" fill="#122C4D" stroke="#2B507A" stroke-width="8" />
    <rect x="40" y="0" width="540" height="120" rx="22" fill="#1A3C63" stroke="#33608D" stroke-width="6" />
    <rect x="60" y="20" width="180" height="90" rx="18" fill="#E6F0FF" stroke="#396799" stroke-width="4" />
    <rect x="260" y="20" width="180" height="90" rx="18" fill="#E6F0FF" stroke="#396799" stroke-width="4" />
    <rect x="460" y="20" width="80" height="90" rx="14" fill="#122C4D" stroke="#396799" stroke-width="4" />
    <rect x="80" y="100" width="460" height="90" rx="18" fill="#0D1F34" stroke="#325579" stroke-width="4" />
    <circle cx="150" cy="220" r="46" fill="#0B1524" stroke="#6B88A7" stroke-width="10" />
    <circle cx="470" cy="220" r="46" fill="#0B1524" stroke="#6B88A7" stroke-width="10" />
    <rect x="520" y="140" width="60" height="46" rx="12" fill="#F5C542" />
    <rect x="-30" y="140" width="60" height="46" rx="12" fill="#F5C542" />
  </g>
  <g stroke="#93C2FF" stroke-width="4" opacity="0.3">
    <path d="M120 360C280 320 460 320 620 360" fill="none" />
    <path d="M720 310C940 270 1200 280 1400 340" fill="none" />
    <path d="M380 260C560 220 780 210 980 250" fill="none" />
  </g>
  <text x="120" y="200" fill="#E6E5E5" font-family="Inter, Arial" font-weight="800" font-size="64">Alpenfahrt mit dem T3</text>
  <text x="120" y="260" fill="#C9D7F2" font-family="Inter, Arial" font-weight="500" font-size="28">Visual inspiriert von der Figma-Bus-Szene</text>
</svg>
