<svg width="1600" height="900" viewBox="0 0 1600 900" xmlns="http://www.w3.org/2000/svg" role="img" aria-labelledby="title desc">
  <title>Markttag bei wechselhaftem Wetter</title>
  <desc>Atmosph채rische Illustration mit Marktst채nden und regnerischem Himmel f체r die Desktop-Hero-Fl채che.</desc>
  <defs>
    <linearGradient id="sky" x1="0" x2="0" y1="0" y2="1">
      <stop offset="0%" stop-color="#1F3F73" />
      <stop offset="60%" stop-color="#203D63" />
      <stop offset="100%" stop-color="#172B43" />
    </linearGradient>
    <linearGradient id="awning" x1="0" x2="1" y1="0" y2="0">
      <stop offset="0%" stop-color="#FF7C3F" />
      <stop offset="50%" stop-color="#FF671F" />
      <stop offset="100%" stop-color="#F24E1E" />
    </linearGradient>
    <linearGradient id="rain" x1="0" x2="0" y1="0" y2="1">
      <stop offset="0%" stop-color="rgba(255,255,255,0.25)" />
      <stop offset="100%" stop-color="rgba(255,255,255,0)" />
    </linearGradient>
  </defs>
  <rect width="1600" height="900" fill="url(#sky)" />
  <g opacity="0.4">
    <rect x="-20" y="620" width="1640" height="360" fill="#0D1828" />
    <circle cx="140" cy="640" r="140" fill="#122845" />
    <circle cx="420" cy="610" r="180" fill="#132A4C" />
    <circle cx="760" cy="620" r="200" fill="#0F223A" />
    <circle cx="1130" cy="650" r="170" fill="#11273F" />
    <circle cx="1420" cy="620" r="190" fill="#0E1F32" />
  </g>
  <g opacity="0.2" stroke="#B8C7E6" stroke-width="4">
    <line x1="200" x2="180" y1="0" y2="900" />
    <line x1="420" x2="400" y1="0" y2="900" />
    <line x1="640" x2="620" y1="0" y2="900" />
    <line x1="860" x2="840" y1="0" y2="900" />
    <line x1="1080" x2="1060" y1="0" y2="900" />
    <line x1="1300" x2="1280" y1="0" y2="900" />
  </g>
  <g>
    <rect x="220" y="420" width="380" height="260" rx="28" fill="#162A47" stroke="#1F3F73" stroke-width="6" />
    <rect x="220" y="390" width="380" height="60" rx="26" fill="url(#awning)" />
    <rect x="260" y="470" width="140" height="110" rx="18" fill="#0D1D32" stroke="#223E63" stroke-width="4" />
    <rect x="430" y="470" width="140" height="110" rx="18" fill="#0D1D32" stroke="#223E63" stroke-width="4" />
    <rect x="320" y="600" width="180" height="40" rx="12" fill="#10233D" />
  </g>
  <g opacity="0.9">
    <rect x="760" y="360" width="520" height="320" rx="36" fill="#122741" stroke="#21436C" stroke-width="6" />
    <rect x="760" y="320" width="520" height="80" rx="34" fill="url(#awning)" />
    <rect x="810" y="430" width="170" height="150" rx="18" fill="#0D1D32" stroke="#264B73" stroke-width="4" />
    <rect x="1020" y="430" width="170" height="150" rx="18" fill="#0D1D32" stroke="#264B73" stroke-width="4" />
    <rect x="920" y="600" width="200" height="46" rx="14" fill="#0F223A" />
  </g>
  <g>
    <path d="M260 340C360 300 430 270 520 280" fill="none" stroke="#7AB6FF" stroke-width="5" stroke-linecap="round" />
    <path d="M620 260C780 220 980 260 1100 310" fill="none" stroke="#7AB6FF" stroke-width="5" stroke-linecap="round" />
    <path d="M1240 330C1340 310 1450 330 1520 350" fill="none" stroke="#7AB6FF" stroke-width="5" stroke-linecap="round" />
  </g>
  <g opacity="0.5">
    <rect x="0" y="0" width="1600" height="900" fill="url(#rain)" />
  </g>
  <text x="120" y="180" fill="#E6E5E5" font-family="Inter, Arial" font-weight="800" font-size="64">Markttag absichern</text>
  <text x="120" y="250" fill="#C9D7F2" font-family="Inter, Arial" font-weight="500" font-size="28">Visual inspiriert von der Figma-Hero-Grafik</text>
</svg>
