<svg width="640" height="640" viewBox="0 0 640 640" xmlns="http://www.w3.org/2000/svg" role="img" aria-labelledby="title desc">
  <title>Martin – Landwirt</title>
  <desc>Illustrativer Avatar für Martin, inspiriert von der Figma-Testimonial-Grafik.</desc>
  <defs>
    <linearGradient id="bg" x1="0" x2="1" y1="0" y2="1">
      <stop offset="0%" stop-color="#1E3C5F" />
      <stop offset="100%" stop-color="#0F263F" />
    </linearGradient>
  </defs>
  <rect width="640" height="640" rx="120" fill="url(#bg)" />
  <circle cx="320" cy="300" r="160" fill="#E5EFE1" />
  <path d="M260 280c0-46 30-84 68-84s68 38 68 84" fill="#D6E6D0" />
  <path d="M228 380c32-44 84-44 116-10c32-34 84-34 116 10v80c0 30-18 54-40 54H268c-22 0-40-24-40-54z" fill="#F5C542" />
  <circle cx="320" cy="300" r="112" fill="#F2D9C2" />
  <path d="M236 278c18-12 46-20 84-20s66 8 84 20c0-72-44-118-84-118s-84 46-84 118z" fill="#2B4A70" />
  <circle cx="276" cy="302" r="10" fill="#213A59" />
  <circle cx="364" cy="302" r="10" fill="#213A59" />
  <path d="M292 340c18 20 38 20 56 0" stroke="#213A59" stroke-width="10" stroke-linecap="round" fill="none" />
  <text x="320" y="520" text-anchor="middle" fill="#E6F0FF" font-family="Inter, Arial" font-weight="700" font-size="36">Martin</text>
</svg>
